<svg id="visual" viewBox="0 0 1920 200" width="1920" height="200" xmlns="http://www.w3.org/2000/svg" xmlns:xlink="http://www.w3.org/1999/xlink" version="1.1"><rect x="0" y="0" width="1920" height="200" fill="#001122"></rect><path d="M0 153L29.2 154.7C58.3 156.3 116.7 159.7 174.8 164C233 168.3 291 173.7 349.2 170.2C407.3 166.7 465.7 154.3 523.8 145.5C582 136.7 640 131.3 698.2 132.2C756.3 133 814.7 140 872.8 145.8C931 151.7 989 156.3 1047.2 158.2C1105.3 160 1163.7 159 1221.8 161.3C1280 163.7 1338 169.3 1396.2 171.8C1454.3 174.3 1512.7 173.7 1570.8 167.2C1629 160.7 1687 148.3 1745.2 144.2C1803.3 140 1861.7 144 1890.8 146L1920 148" fill="none" stroke-linecap="round" stroke-linejoin="miter" stroke="#e7472e" stroke-width="40"></path></svg>